<svg id="Like" xmlns="http://www.w3.org/2000/svg" xmlns:xlink="http://www.w3.org/1999/xlink" width="22" height="22" viewBox="0 0 22 22">
  <defs>
    <clipPath id="clip-path">
      <rect id="사각형_5" data-name="사각형 5" width="22" height="22" fill="none" stroke="#111" stroke-width="1"/>
    </clipPath>
  </defs>
  <g id="그룹_102" data-name="그룹 102" clip-path="url(#clip-path)">
    <path id="패스_1" data-name="패스 1" d="M11.079,20.09l-1.017-.918a87.881,87.881,0,0,1-6.473-6.448A8.444,8.444,0,0,1,1.158,7.143,5.125,5.125,0,0,1,6.367,1.91a5.644,5.644,0,0,1,2.5.607,5.894,5.894,0,0,1,2.207,2,7.2,7.2,0,0,1,2.257-2,5.241,5.241,0,0,1,2.455-.607A5.126,5.126,0,0,1,21,7.143a8.444,8.444,0,0,1-2.431,5.581A87.881,87.881,0,0,1,12.1,19.172Z" fill="none" stroke="#111" stroke-width="2"/>
  </g>
</svg>
